<svg xmlns="http://www.w3.org/2000/svg" width="22.332" height="22.372" viewBox="0 0 22.332 22.372">
    <defs>
        <style>
            .cls-1{fill:none;stroke:#1ac977;stroke-linecap:round;stroke-linejoin:round;stroke-width:1.5px}
        </style>
    </defs>
    <path id="phone-call" d="M14.966 4.974A4.968 4.968 0 0 1 18.89 8.9M14.966 1a8.942 8.942 0 0 1 7.9 7.888m-.994 7.928V19.8a1.987 1.987 0 0 1-2.172 1.984 19.662 19.662 0 0 1-8.574-3.05 19.373 19.373 0 0 1-5.956-5.961 19.661 19.661 0 0 1-3.05-8.614A1.987 1.987 0 0 1 4.1 1.994h2.978A1.987 1.987 0 0 1 9.065 3.7a12.757 12.757 0 0 0 .7 2.792 1.987 1.987 0 0 1-.447 2.1l-1.267 1.26a15.9 15.9 0 0 0 5.961 5.961l1.262-1.262a1.987 1.987 0 0 1 2.1-.447 12.757 12.757 0 0 0 2.792.7 1.987 1.987 0 0 1 1.705 2.013z" class="cls-1" transform="translate(-1.361 -.172)"/>
</svg>
