<svg width="20" height="20" viewBox="0 0 20 20" fill="none" xmlns="http://www.w3.org/2000/svg">
<path d="M9.99999 13.3333C11.8409 13.3333 13.3333 11.8409 13.3333 9.99996C13.3333 8.15901 11.8409 6.66663 9.99999 6.66663C8.15904 6.66663 6.66666 8.15901 6.66666 9.99996C6.66666 11.8409 8.15904 13.3333 9.99999 13.3333Z" stroke="#1AC977" stroke-width="1.3" stroke-linecap="round" stroke-linejoin="round"/>
<path d="M13.3333 6.66672V10.8334C13.3333 11.4964 13.5967 12.1323 14.0656 12.6012C14.5344 13.07 15.1703 13.3334 15.8333 13.3334C16.4964 13.3334 17.1323 13.07 17.6011 12.6012C18.0699 12.1323 18.3333 11.4964 18.3333 10.8334V10.0001C18.3332 8.11924 17.6969 6.29378 16.5277 4.8205C15.3586 3.34721 13.7255 2.31274 11.8939 1.8853C10.0623 1.45786 8.13994 1.66259 6.43945 2.46619C4.73897 3.2698 3.36033 4.62502 2.52771 6.31149C1.6951 7.99796 1.45747 9.9165 1.85347 11.7551C2.24947 13.5938 3.25581 15.2444 4.70886 16.4386C6.1619 17.6328 7.97619 18.3003 9.85672 18.3327C11.7373 18.365 13.5734 17.7603 15.0667 16.6167" stroke="#1AC977" stroke-width="1.3" stroke-linecap="round" stroke-linejoin="round"/>
</svg>
