<?xml version="1.0" encoding="utf-8"?><!DOCTYPE svg PUBLIC "-//W3C//DTD SVG 1.1//EN" "http://www.w3.org/Graphics/SVG/1.1/DTD/svg11.dtd"><svg version="1.1" xmlns="http://www.w3.org/2000/svg" xmlns:xlink="http://www.w3.org/1999/xlink" width="32" height="32" viewBox="0 0 32 32" data-tags="basket,shopping,cart,ecommerce"><g fill="#444" transform="scale(0.03125 0.03125)"><path d="M928 448h-832c-17.696 0-32-14.304-32-32s14.304-32 32-32h64l192-352c0-17.696 14.304-32 32-32h64c17.696 0 32 14.304 32 32l-192 352h448l-192-352c0-17.696 14.304-32 32-32h96c17.696 0 32 14.304 32 32l160 352h64c17.696 0 32 14.304 32 32s-14.304 32-32 32zM96 512h832c17.696 0 32 14.304 32 32l-64 448c0 17.696-14.304 32-32 32h-704c-17.696 0-32-14.304-32-32l-64-448c0-17.696 14.304-32 32-32zM704 896h64c17.696 0 32-14.304 32-32l32-192c0-17.696-14.304-32-32-32h-64c-17.696 0-32 14.304-32 32l-32 192c0 17.696 14.304 32 32 32zM448 864c0 17.696 14.304 32 32 32h64c17.696 0 32-14.304 32-32v-192c0-17.696-14.304-32-32-32h-64c-17.696 0-32 14.304-32 32v192zM224 864c0 17.696 14.304 32 32 32h64c17.696 0 32-14.304 32-32l-32-192c0-17.696-14.304-32-32-32h-64c-17.696 0-32 14.304-32 32l32 192z" /></g></svg>